<svg id="mcd-studio" version="1.1" baseProfile="basic" xmlns="http://www.w3.org/2000/svg" xmlns:xlink="http://www.w3.org/1999/xlink" x="0px"
	 y="0px" viewBox="0 0 449 292.7" xml:space="preserve" onclick="mcdstudio.reset().play();">
<style type="text/css">
	.st0{fill-rule:evenodd;clip-rule:evenodd;fill:var(--cor_1);}
</style>
<g id="mcd_">
	<path id="mcd" class="st0" d="M297.9,227.9c-0.5-3.7-0.8-7.5-0.8-11.2c0-41.9,34-76,76-76c12.7,0,25,3.2,36,9.1v-20.6l2-1.4
		c15.8-11.7,25.1-30.7,24.9-50.3v-4.8H449v143.9c0,5.6-0.7,11.8-2,17.3c-7.8,33.9-38.2,58.8-74,58.8c-21.3,0-41.3-8.8-55.6-24.2
		c-7.7,7.5-16.9,13.1-26.9,16.8c-32.3,11.7-67.6,0.3-87.1-26.2V284h-39.8v-78.8c0-39.8-41.1-36.4-41.9-4.2c0,1.4,0.1,2.6,0.1,3.9
		v0.1V284H81.9v-78.8V204c-0.1-0.3-0.1-0.7-0.1-1c-0.3-7.5-2.2-15.9-7.7-21.4c-3.9-3.9-9-5.9-14.4-5.4c-5.6,0.4-10.6,3.3-14,7.7
		c-4.7,5.9-6.1,13.6-5.6,21v0.1v79H0.1v-78.7c-0.6-14.4,2.3-28.9,10.3-41.1c6.8-10.4,16.6-18,28.2-22.4c21.3-7.9,45.9-3.7,62.7,11.6
		c15-13.7,36.5-18.6,56.2-13.6c19.7,4.9,34,18.5,41,36.5c8.8-15.6,22.9-27.6,40-33.9c21.5-7.8,45.1-5.6,64.7,6l0.2,0.1l5.4,3.9
		l-3.5,4c-6.4,7.2-11.7,15.3-15.6,24.2l-2.2,4.9l-4.7-2.7c-9.3-5.5-20.5-6.5-30.6-2.8c-18.8,6.8-28.4,27.5-21.6,46.2
		c6.8,18.8,27.6,28.4,46.3,21.6C286.5,244.4,294,237.2,297.9,227.9 M373.1,175.8c-18.9,0-34.8,12.8-39.5,30.2h-1.1
		c-1.6,0-2.9,1.2-2.9,2.6v18.8c0,1.4,1.4,2.6,2.9,2.6h1.9c1.3,3.6,3,7,5.1,10.1l-10.3,10.6c1.2,1.6,2.5,3,3.9,4.5l11.5-9.1
		c7.4,7.1,17.3,11.5,28.4,11.5c10.6,0,20.4-4.1,27.6-10.8l11.5,9.1c1.4-1.4,2.7-2.8,3.9-4.3L405.9,241c2.4-3.3,4.4-7,5.8-11h1.8
		c1.6,0,2.9-1.2,2.9-2.6v-18.8c0-1.4-1.3-2.6-2.9-2.6h-1C407.8,188.6,391.9,175.8,373.1,175.8 M407,174.9c-3.5,0-6.3-2.8-6.3-6.3
		c0,3.5-2.8,6.3-6.3,6.3c3.5,0,6.3,2.8,6.3,6.3C400.7,177.7,403.5,174.9,407,174.9 M420.6,188.1c-5.1,0-9.2-4.1-9.2-9.2
		c0,5.1-4.2,9.2-9.3,9.2c5.1,0,9.3,4.1,9.3,9.3C411.4,192.2,415.5,188.1,420.6,188.1"/>
</g>
<g id="skull_">
	<path id="skull" class="st0" d="M380.4,198.3c-3.2,0-5.7-2.5-5.7-5.7
		c0,3.2-2.6,5.7-5.7,5.7c3.1,0,5.7,2.6,5.7,5.7C374.7,200.9,377.2,198.3,380.4,198.3 M394.3,188.4c-4.3,0-7.9-3.5-7.9-7.9
		c0,4.3-3.5,7.9-7.9,7.9c4.3,0,7.9,3.5,7.9,7.9C386.4,191.9,390,188.4,394.3,188.4 M401.3,202.7c-3.2,0-5.7-2.5-5.7-5.7
		c0,3.2-2.6,5.7-5.8,5.7c3.2,0,5.8,2.6,5.8,5.8C395.6,205.3,398.1,202.7,401.3,202.7 M346.5,214.1c0.5,1.9,1.3,3.9,2.4,5.8
		c-0.3,4.5-2.3,7-3.5,10.4c-0.3,1.7,0.5,3.6,2.4,5.5c2.4,0.5,4.5,0.3,7.2,1.5c2.5,1.4,2.3,5.2,3.5,7.9c5.8,7.9,22.6,8.1,28.9,0
		c1.2-2.6,0.9-6.4,3.5-7.9c2.6-1.2,4.8-1,7.2-1.5c1.8-1.9,2.6-3.8,2.3-5.5c-1.2-3.5-3.1-6-3.4-10.4c1.2-2,2-3.9,2.4-5.9
		C385.1,210.1,361.4,210,346.5,214.1 M376.5,220.3c2.6-0.9,6.2-1.4,10.1-2.9c3.2-1.3,5.1,0.3,6.5,3.9c1.8,4.5-0.3,8.3-4.9,9.7
		C380.2,233.5,375.1,228.6,376.5,220.3 M369.6,220.3c-3-0.3-6.4-1.2-10.2-2.9c-3-1.5-5.1,0.3-6.5,3.9c-1.7,4.5,0.3,8.3,4.9,9.7
		C365.8,233.5,370.9,228.6,369.6,220.3 M373.1,236.2c-0.5,0.3-1,0.7-1.6,1c-1.6-0.3-2.7-0.7-2.2-1.5c1.3-1.1,2.5-2.1,3.8-3.2
		c1.3,1.1,2.5,2.1,3.8,3.2c0,1-0.9,1.4-2.2,1.5C374.1,236.9,373.6,236.5,373.1,236.2"/>
</g>
<g id="studio_">
	<path id="studio" class="st0" d="M372.3,34.1c24.5,0,44.3,19.9,44.3,44.3c0,24.5-19.9,44.3-44.3,44.3c-24.5,0-44.3-19.9-44.3-44.3
		C328,53.9,347.8,34.1,372.3,34.1 M127.3,92.8v-56h24.9v48.7c1.3,17.2,24.7,16.8,27.3,0.5V36.8h24.9v82.5h-24.9v-6
		c-1.6,1.5-3.3,2.8-4.9,4.1c-10.7,7.5-29.3,4.3-38.7-4.8c-5,5.4-11.3,8.6-21.8,9.1c-10.4,0.5-21.5-3.4-27.1-10.4
		c-3.7-4.5-5-10.8-5.4-18.4V59.3H73h-4.5V36.8h0.1h4.1c6,0,10.8-4.9,10.8-10.8V12.8h23.1v24h17v22.5h-17v29.1
		c0.3,9.8,5.8,10.9,11.9,9.8C120.4,97.8,127.7,96.4,127.3,92.8 M0.1,96.1l23.1,0.5c0.5,5.1,7.5,7.5,13.3,7.7
		c5.3,0.1,10.8-5.8,7.4-10.2c-2.6-3.3-7.1-3.7-11-4.5c-12.1-2.6-17.1-4.2-22.5-8.7c-5.8-4.8-8.3-11-8.3-19.2C1.9,46.8,16.5,35,34,35
		c16.5,0,31.8,7,32.7,24.3H45.1c-1.9-5.8-9.9-8-15.4-4.7c-3.2,1.9-5,5.2-3.4,8.7c0.5,1.1,2,2,3.3,2.6c6.7,3.1,17.8,3.3,26.8,7.7
		c16.2,8.1,15.9,29,3.7,41c-5.7,5.6-13.2,9.1-24.4,9.1c-10.1,0-18.1-2.4-24-7C5.8,112.1,1.2,104,0.1,96.1 M295,119.3h-24.9v-6
		c-6.3,5-14.2,8-23.4,8c-23.5,0-39-19.4-39-43.4c0-24,15.5-43.4,39-43.4c9.1,0,17.1,3,23.4,8V0H295V119.3z M251.8,57.4
		c11.5,0,18.3,9.1,18.3,20.4c0,11.2-6.2,20.4-18.3,20.4c-12.1,0-18.4-9.1-18.4-20.4C233.4,66.5,240.3,57.4,251.8,57.4 M299.8,36.8
		h24.9v82.5h-24.9V36.8z M312.2,0c8,0,14.5,6.5,14.5,14.5s-6.5,14.4-14.5,14.4c-8,0-14.4-6.4-14.4-14.4S304.2,0,312.2,0 M372.3,58.7
		c10.9,0,19.7,8.8,19.7,19.7c0,10.8-8.8,19.7-19.7,19.7c-10.9,0-19.7-8.9-19.7-19.7C352.6,67.5,361.4,58.7,372.3,58.7"/>
</g>
</svg>
